<svg width="1200" height="100" viewBox="0 0 1200 100" fill="none" xmlns="http://www.w3.org/2000/svg">
<g clip-path="url(#clip0_2004_3)">
<rect width="1200" height="100" rx="10" fill="#C1BBA8"/>
<path d="M586.69 30.313C589.644 15.8183 610.356 15.8183 613.31 30.313L615.173 39.4564C617.198 49.3911 628.998 53.6862 636.935 47.3772L644.24 41.5706C655.82 32.3657 671.686 45.6791 664.632 58.6813L660.182 66.8833C655.347 75.7951 661.626 86.6708 671.761 86.9394L681.089 87.1867C695.877 87.5786 699.473 107.976 685.712 113.402L677.031 116.825C667.599 120.543 665.418 132.911 673.009 139.632L679.996 145.817C691.072 155.622 680.716 173.559 666.686 168.87L657.836 165.912C648.22 162.698 638.6 170.77 640.095 180.798L641.472 190.028C643.654 204.658 624.191 211.742 616.458 199.132L611.579 191.177C606.279 182.534 593.721 182.534 588.421 191.177L583.542 199.132C575.809 211.742 556.346 204.658 558.528 190.028L559.905 180.798C561.4 170.77 551.78 162.698 542.164 165.912L533.314 168.87C519.284 173.559 508.928 155.622 520.004 145.817L526.991 139.632C534.582 132.911 532.402 120.543 522.969 116.825L514.288 113.402C500.527 107.976 504.123 87.5786 518.911 87.1867L528.239 86.9394C538.374 86.6708 544.653 75.7951 539.818 66.8833L535.368 58.6814C528.314 45.6791 544.18 32.3657 555.76 41.5706L563.065 47.3772C571.002 53.6862 582.802 49.3911 584.827 39.4564L586.69 30.313Z" fill="black"/>
<path d="M364 2957.83L364 3048.47L40.9746 3048.47L40.9746 2957.83L364 2957.83ZM364 3198.9L364 3289.54L40.9746 3289.54L40.9746 3198.9L364 3198.9ZM242.504 3001.71L242.504 3265.91L161.024 3265.91L161.024 3001.71L242.504 3001.71ZM364 2838.24L364 2928.88L40.9746 2928.88L40.9746 2838.24L364 2838.24ZM364 2642.02L364 2904.29L282.521 2904.29L282.521 2642.02L364 2642.02ZM242.022 2649.25L242.022 2904.29L161.024 2904.29L161.024 2649.25L242.022 2649.25ZM122.454 2642.02L122.454 2904.29L40.9746 2904.29L40.9746 2642.02L122.454 2642.02ZM368.821 2453.29C368.821 2490.9 363.197 2521.92 351.947 2546.34C340.376 2570.45 324.144 2588.45 303.252 2600.34C282.038 2612.23 257.128 2618.18 228.522 2618.18L40.9746 2618.18L40.9746 2527.54L221.29 2527.54C236.718 2527.54 248.772 2525.61 257.45 2521.76C266.128 2517.9 272.235 2510.67 275.771 2500.06C279.306 2489.13 281.074 2473.54 281.074 2453.29C281.074 2432.72 279.306 2417.13 275.771 2406.53C272.235 2395.92 266.128 2388.69 257.45 2384.83C248.772 2380.97 236.718 2379.05 221.29 2379.05L40.9746 2379.05L40.9746 2288.41L228.522 2288.41C257.128 2288.41 282.038 2294.35 303.252 2306.24C324.144 2318.14 340.376 2336.3 351.947 2360.72C363.197 2384.83 368.821 2415.69 368.821 2453.29ZM364 2020.67L364 2150.84L40.9746 2280.53L40.9746 2171.09L272.396 2087.68L272.396 2081.41L40.9745 1999.93L40.9745 1890.97L364 2020.67ZM364 1790.65L364 1881.29L40.9745 1881.29L40.9745 1790.65L364 1790.65ZM364 1594.42L364 1856.7L282.521 1856.7L282.52 1594.42L364 1594.42ZM242.022 1601.66L242.022 1856.7L161.024 1856.7L161.024 1601.66L242.022 1601.66ZM122.454 1594.42L122.454 1856.7L40.9745 1856.7L40.9745 1594.42L122.454 1594.42ZM364 1478.02L364 1568.66L40.9745 1568.66L40.9745 1478.02L364 1478.02ZM364 1291.44L364 1543.59L282.52 1543.59L282.52 1291.44L364 1291.44ZM364 1176.69L364 1267.33L40.9745 1267.33L40.9745 1176.69L364 1176.69ZM364 1057.1L364 1147.74L40.9745 1147.74L40.9745 1051.31L161.989 961.639L236.236 914.391L236.236 908.123L165.846 912.462L40.9745 912.462L40.9745 821.822L364 821.822L364 918.248L239.611 1013.71L175.97 1054.69L175.97 1060.96L237.683 1057.1L364 1057.1ZM364 452.354L364 560.833L249.254 636.045L249.254 728.613L161.024 728.613L161.024 637.009L40.9745 558.422L40.9745 449.944L199.594 561.797L364 452.354ZM364 702.096L364 792.736L40.9745 792.736L40.9745 702.096L364 702.096ZM364 175.085L364 265.725L40.9745 265.725L40.9745 175.085L364 175.085ZM122.454 61.3033L122.454 379.99L40.9745 379.99L40.9745 61.3033L122.454 61.3033ZM364 -292.292L364 -201.652L40.9744 -201.652L40.9744 -292.292L364 -292.292ZM364 -51.2284L364 39.4116L40.9745 39.4117L40.9745 -51.2284L364 -51.2284ZM242.504 -248.419L242.504 15.7874L161.024 15.7874L161.024 -248.419L242.504 -248.419Z" fill="#040200"/>
</g>
<rect x="1" y="1" width="1198" height="98" rx="9" stroke="#2F353D" stroke-width="2"/>
<rect x="1" y="1" width="1198" height="98" rx="9" stroke="#2F353D" stroke-width="2"/>
<defs>
<clipPath id="clip0_2004_3">
<rect width="1200" height="100" rx="10" fill="white"/>
</clipPath>
</defs>
</svg>
