<svg width="1200" height="100" viewBox="0 0 1200 100" fill="none" xmlns="http://www.w3.org/2000/svg">
<g clip-path="url(#clip0_2004_3)">
<rect width="1200" height="100" rx="10" fill="#C1BBA8"/>
<path d="M586.69 30.313C589.644 15.8183 610.356 15.8183 613.31 30.313L615.173 39.4564C617.198 49.3911 628.998 53.6862 636.935 47.3772L644.24 41.5706C655.82 32.3657 671.686 45.6791 664.632 58.6813L660.182 66.8833C655.347 75.7951 661.626 86.6708 671.761 86.9394L681.089 87.1867C695.877 87.5786 699.473 107.976 685.712 113.402L677.031 116.825C667.599 120.543 665.418 132.911 673.009 139.632L679.996 145.817C691.072 155.622 680.716 173.559 666.686 168.87L657.836 165.912C648.22 162.698 638.6 170.77 640.095 180.798L641.472 190.028C643.654 204.658 624.191 211.742 616.458 199.132L611.579 191.177C606.279 182.534 593.721 182.534 588.421 191.177L583.542 199.132C575.809 211.742 556.346 204.658 558.528 190.028L559.905 180.798C561.4 170.77 551.78 162.698 542.164 165.912L533.314 168.87C519.284 173.559 508.928 155.622 520.004 145.817L526.991 139.632C534.582 132.911 532.402 120.543 522.969 116.825L514.288 113.402C500.527 107.976 504.123 87.5786 518.911 87.1867L528.239 86.9394C538.374 86.6708 544.653 75.7951 539.818 66.8833L535.368 58.6814C528.314 45.6791 544.18 32.3657 555.76 41.5706L563.065 47.3772C571.002 53.6862 582.802 49.3911 584.827 39.4564L586.69 30.313Z" fill="black"/>
</g>
<rect x="1" y="1" width="1198" height="98" rx="9" stroke="#2F353D" stroke-width="2"/>
<rect x="1" y="1" width="1198" height="98" rx="9" stroke="#2F353D" stroke-width="2"/>
<defs>
<clipPath id="clip0_2004_3">
<rect width="1200" height="100" rx="10" fill="white"/>
</clipPath>
</defs>
</svg>
