<svg width="1200" height="200" viewBox="0 0 1200 200" fill="none" xmlns="http://www.w3.org/2000/svg">
<g clip-path="url(#clip0_2004_2)">
<rect width="1200" height="200" rx="10" fill="#C1BBA8"/>
<path d="M495.2 173V103H486.4V173H466.4V21H486.4V84H495.2V21H515.2V173H495.2ZM532.817 146.4V128.4H559.817V146.4H532.817ZM531.417 21H559.817L570.617 173H550.617L546.817 60.4L544.617 26H546.217L544.017 60.4L539.817 173H520.617L531.417 21ZM575.97 173V21H596.17V155H613.57V173H575.97ZM618.939 173V21H639.139V155H656.539V173H618.939ZM686.773 97C686.773 84.2 686.707 73.8 686.573 65.8C686.44 57.8 686.173 51.7333 685.773 47.6C685.507 43.3333 685.04 40.4 684.373 38.8C683.84 37.2 683.173 36.4 682.373 36.4C681.573 36.4 680.907 37.2 680.373 38.8C679.84 40.4 679.373 43.3333 678.973 47.6C678.573 51.7333 678.307 57.8 678.173 65.8C678.04 73.8 677.973 84.2 677.973 97C677.973 109.8 678.04 120.2 678.173 128.2C678.307 136.2 678.573 142.333 678.973 146.6C679.373 150.733 679.84 153.6 680.373 155.2C680.907 156.8 681.573 157.6 682.373 157.6C683.173 157.6 683.84 156.8 684.373 155.2C685.04 153.6 685.507 150.733 685.773 146.6C686.173 142.333 686.44 136.2 686.573 128.2C686.707 120.2 686.773 109.8 686.773 97ZM657.373 97C657.373 80.2 657.907 66.7333 658.973 56.6C660.04 46.3333 661.64 38.6 663.773 33.4C665.907 28.0667 668.507 24.5333 671.573 22.8C674.773 20.9333 678.373 20 682.373 20C686.373 20 689.907 20.9333 692.973 22.8C696.173 24.5333 698.84 28.0667 700.973 33.4C703.107 38.6 704.707 46.3333 705.773 56.6C706.84 66.7333 707.373 80.2 707.373 97C707.373 113.8 706.84 127.333 705.773 137.6C704.707 147.733 703.107 155.467 700.973 160.8C698.84 166 696.173 169.533 692.973 171.4C689.907 173.133 686.373 174 682.373 174C678.373 174 674.773 173.133 671.573 171.4C668.507 169.533 665.907 166 663.773 160.8C661.64 155.467 660.04 147.733 658.973 137.6C657.907 127.333 657.373 113.8 657.373 97ZM713.647 151H733.847V173H713.647V151ZM713.647 21H733.847V31L731.847 143H715.647L713.647 31V21Z" fill="black"/>
<path d="M364 1201.83L364 1292.47L40.9746 1292.47L40.9746 1201.83L364 1201.83ZM364 1442.9L364 1533.54L40.9746 1533.54L40.9746 1442.9L364 1442.9ZM242.504 1245.71L242.504 1509.91L161.024 1509.91L161.024 1245.71L242.504 1245.71ZM364 1082.24L364 1172.88L40.9746 1172.88L40.9746 1082.24L364 1082.24ZM364 886.016L364 1148.29L282.521 1148.29L282.521 886.016L364 886.016ZM242.022 893.248L242.022 1148.29L161.024 1148.29L161.024 893.248L242.022 893.248ZM122.454 886.016L122.454 1148.29L40.9746 1148.29L40.9746 886.016L122.454 886.016ZM368.821 697.293C368.821 734.899 363.197 765.916 351.947 790.344C340.376 814.45 324.144 832.45 303.252 844.342C282.038 856.235 257.128 862.181 228.522 862.181L40.9746 862.181L40.9746 771.541L221.29 771.541C236.718 771.541 248.772 769.612 257.45 765.755C266.128 761.898 272.235 754.666 275.771 744.06C279.306 733.131 281.074 717.543 281.074 697.293C281.074 676.722 279.306 661.134 275.771 650.527C272.235 639.92 266.128 632.688 257.45 628.831C248.772 624.974 236.718 623.046 221.29 623.046L40.9746 623.046L40.9746 532.406L228.522 532.405C257.128 532.405 282.038 538.352 303.252 550.244C324.144 562.137 340.376 580.297 351.947 604.725C363.197 628.831 368.821 659.687 368.821 697.293ZM364 264.666L364 394.841L40.9746 524.533L40.9746 415.09L272.396 331.682L272.396 325.415L40.9745 243.935L40.9745 134.974L364 264.666ZM364 34.6502L364 125.29L40.9745 125.29L40.9745 34.6502L364 34.6502ZM364 -161.576L364 100.702L282.521 100.702L282.52 -161.576L364 -161.576ZM242.022 -154.344L242.022 100.702L161.024 100.702L161.024 -154.344L242.022 -154.344ZM122.454 -161.576L122.454 100.702L40.9745 100.702L40.9745 -161.576L122.454 -161.576ZM364 -277.98L364 -187.34L40.9745 -187.34L40.9745 -277.98L364 -277.98ZM364 -464.563L364 -212.41L282.52 -212.41L282.52 -464.563L364 -464.563ZM364 -579.309L364 -488.669L40.9745 -488.669L40.9745 -579.309L364 -579.309ZM364 -698.9L364 -608.26L40.9745 -608.259L40.9745 -704.685L161.989 -794.361L236.236 -841.609L236.236 -847.877L165.846 -843.538L40.9745 -843.538L40.9745 -934.178L364 -934.178L364 -837.752L239.611 -742.291L175.97 -701.31L175.97 -695.042L237.683 -698.9L364 -698.9ZM364 -1303.65L364 -1195.17L249.254 -1119.96L249.254 -1027.39L161.024 -1027.39L161.024 -1118.99L40.9745 -1197.58L40.9745 -1306.06L199.594 -1194.2L364 -1303.65ZM364 -1053.9L364 -963.264L40.9745 -963.264L40.9745 -1053.9L364 -1053.9ZM364 -1580.91L364 -1490.27L40.9745 -1490.27L40.9745 -1580.91L364 -1580.91ZM122.454 -1694.7L122.454 -1376.01L40.9745 -1376.01L40.9745 -1694.7L122.454 -1694.7ZM364 -2048.29L364 -1957.65L40.9744 -1957.65L40.9744 -2048.29L364 -2048.29ZM364 -1807.23L364 -1716.59L40.9745 -1716.59L40.9745 -1807.23L364 -1807.23ZM242.504 -2004.42L242.504 -1740.21L161.024 -1740.21L161.024 -2004.42L242.504 -2004.42Z" fill="#040200"/>
</g>
<rect x="1" y="1" width="1198" height="198" rx="9" stroke="#2F353D" stroke-width="2"/>
<rect x="1" y="1" width="1198" height="198" rx="9" stroke="#2F353D" stroke-width="2"/>
<defs>
<clipPath id="clip0_2004_2">
<rect width="1200" height="200" rx="10" fill="white"/>
</clipPath>
</defs>
</svg>
