<svg width="402" height="202" viewBox="0 0 402 202" fill="none" xmlns="http://www.w3.org/2000/svg">
<rect x="1" y="1" width="400" height="200" rx="10" fill="#C1BBA8"/>
<rect x="1" y="1" width="400" height="200" rx="10" stroke="#2F353D" stroke-width="2"/>
<rect x="1" y="1" width="400" height="200" rx="10" stroke="#2F353D" stroke-width="2"/>
<path d="M263.489 163C262.416 163 261.545 162.132 261.545 161.061L261.545 41.1753C261.545 40.1047 262.416 39.2368 263.489 39.2368L310.056 39.2368C311.13 39.2368 312 40.1047 312 41.1753L312 161.061C312 162.132 311.13 163 310.056 163L263.489 163Z" fill="#010101"/>
<path d="M216.314 163C215.241 163 214.373 162.132 214.345 161.062C214.105 151.889 212.16 142.825 208.596 134.322C204.78 125.219 199.179 116.928 192.096 109.929C185.012 102.929 176.586 97.3601 167.289 93.5547C158.589 89.9938 149.295 88.0463 139.876 87.8106C138.802 87.7837 137.932 86.9183 137.932 85.8477V40.9238C137.932 39.8532 138.802 38.9838 139.876 39.0002C155.663 39.2424 171.269 42.4318 185.873 48.4092C201.076 54.6318 214.898 63.7557 226.546 75.2657C238.194 86.7759 247.44 100.447 253.751 115.502C259.812 129.96 263.049 145.419 263.296 161.061C263.313 162.132 262.441 163 261.367 163H216.314Z" fill="#010101"/>
<path d="M137.932 161.062C137.932 162.132 137.061 163 135.988 163H91.944C90.8704 163 90 162.132 90 161.062V89.4732C90 88.4026 90.8704 87.5347 91.944 87.5347H135.988C137.061 87.5347 137.932 88.4026 137.932 89.4732V161.062Z" fill="#010101"/>
</svg>
