<svg width="400" height="200" viewBox="0 0 400 200" fill="none" xmlns="http://www.w3.org/2000/svg">
<rect x="1" y="1" width="398" height="198" rx="9" fill="#C1BBA8"/>
<rect x="1" y="1" width="398" height="198" rx="9" stroke="#2F353D" stroke-width="2"/>
<rect x="1" y="1" width="398" height="198" rx="9" stroke="#2F353D" stroke-width="2"/>
<path d="M52.9 40L55.15 47.2V154H40.3V40H52.9ZM61.75 72.55C61.75 66.95 61.5 62.8 61 60.1C60.5 57.4 59.75 55.65 58.75 54.85C57.85 53.95 56.65 53.5 55.15 53.5H48.4V40H52.9C58.6 40 63.2 41.1 66.7 43.3C70.2 45.4 72.75 48.85 74.35 53.65C75.95 58.35 76.75 64.65 76.75 72.55C76.75 80.35 75.95 86.65 74.35 91.45C72.75 96.15 70.2 99.6 66.7 101.8C63.2 104 58.6 105.1 52.9 105.1H48.4V91.6H55.15C56.65 91.6 57.85 91.15 58.75 90.25C59.75 89.35 60.5 87.55 61 84.85C61.5 82.15 61.75 78.05 61.75 72.55ZM105.933 65.65V83.35C104.833 83.15 103.733 83 102.633 82.9C101.533 82.7 100.583 82.6 99.7832 82.6C98.8832 82.6 98.0332 82.65 97.2332 82.75C96.5332 82.75 95.9332 82.8 95.4332 82.9V75.25C96.5332 71.85 97.9332 69.4 99.6332 67.9C101.333 66.4 103.433 65.65 105.933 65.65ZM80.2832 154V66.4H93.1832L95.4332 75.25V154H80.2832ZM109.434 154V66.4H124.584V154H109.434ZM109.434 60.4V43.9H124.584V60.4H109.434ZM130.527 154V66.4H144.027L145.677 72.7V154H130.527ZM166.677 154H151.527V86.05C151.527 82.55 151.277 80.2 150.777 79C150.377 77.8 149.577 77.2 148.377 77.2C147.977 77.2 147.577 77.25 147.177 77.35C146.777 77.45 146.277 77.6 145.677 77.8V72.7C146.777 70.5 148.277 68.8 150.177 67.6C152.077 66.3 154.027 65.65 156.027 65.65C159.227 65.65 161.777 66.9 163.677 69.4C165.677 71.9 166.677 76.45 166.677 83.05V154ZM170.018 79.15V66.4H197.168V79.15H170.018ZM174.518 127V66.4H175.268L179.618 52H189.668V123.1C189.668 130.3 189.918 135.1 190.418 137.5C190.918 139.8 191.818 140.95 193.118 140.95C193.918 140.95 194.668 140.95 195.368 140.95C196.068 140.85 196.668 140.75 197.168 140.65V154.15C196.468 154.25 195.568 154.35 194.468 154.45C193.368 154.65 192.518 154.75 191.918 154.75C188.418 154.75 185.368 154.1 182.768 152.8C180.168 151.4 178.118 148.7 176.618 144.7C175.218 140.7 174.518 134.8 174.518 127ZM216.136 180.4H200.986V66.4H214.486L216.136 72.55V180.4ZM237.886 110.2C237.886 119.5 237.586 127.1 236.986 133C236.386 138.8 235.486 143.3 234.286 146.5C233.186 149.6 231.836 151.75 230.236 152.95C228.736 154.15 227.036 154.75 225.136 154.75C223.536 154.75 221.886 154.25 220.186 153.25C218.586 152.25 217.236 150.95 216.136 149.35V142.6C216.636 142.8 217.036 142.95 217.336 143.05C217.736 143.15 218.136 143.2 218.536 143.2C219.236 143.2 219.836 142.7 220.336 141.7C220.836 140.6 221.236 138.8 221.536 136.3C221.836 133.8 222.036 130.45 222.136 126.25C222.336 121.95 222.436 116.6 222.436 110.2C222.436 103.9 222.336 98.7 222.136 94.6C222.036 90.4 221.836 87.1 221.536 84.7C221.236 82.3 220.836 80.6 220.336 79.6C219.836 78.5 219.236 77.95 218.536 77.95C217.736 77.95 216.936 78.15 216.136 78.55V72.55C217.136 70.45 218.386 68.8 219.886 67.6C221.486 66.3 223.236 65.65 225.136 65.65C227.036 65.65 228.736 66.25 230.236 67.45C231.836 68.65 233.186 70.85 234.286 74.05C235.486 77.15 236.386 81.65 236.986 87.55C237.586 93.35 237.886 100.9 237.886 110.2ZM242.588 154V40H257.738V154H242.588ZM280.782 65.65C283.082 65.65 285.232 66.15 287.232 67.15C289.232 68.15 291.032 69.9 292.632 72.4C294.232 74.9 295.482 78.4 296.382 82.9C297.282 87.3 297.732 92.9 297.732 99.7V112.9H273.732V102.4H292.782L283.782 111.4V110.2C283.782 101.8 283.682 95.3 283.482 90.7C283.282 86 282.982 82.7 282.582 80.8C282.182 78.9 281.582 77.95 280.782 77.95C280.082 77.95 279.482 78.9 278.982 80.8C278.582 82.7 278.282 86 278.082 90.7C277.882 95.3 277.782 101.8 277.782 110.2C277.782 118.5 277.882 125 278.082 129.7C278.282 134.4 278.582 137.7 278.982 139.6C279.482 141.5 280.082 142.45 280.782 142.45C281.682 142.45 282.332 141.2 282.732 138.7C283.132 136.1 283.432 131.45 283.632 124.75L283.782 120.4H297.732L297.582 125.5C297.382 133 296.482 138.9 294.882 143.2C293.382 147.4 291.382 150.4 288.882 152.2C286.482 153.9 283.782 154.75 280.782 154.75C278.082 154.75 275.582 154.2 273.282 153.1C271.082 151.9 269.132 149.75 267.432 146.65C265.832 143.55 264.582 139.05 263.682 133.15C262.782 127.25 262.332 119.6 262.332 110.2C262.332 100.7 262.782 93.05 263.682 87.25C264.582 81.35 265.832 76.85 267.432 73.75C269.132 70.65 271.082 68.55 273.282 67.45C275.582 66.25 278.082 65.65 280.782 65.65ZM302.354 154V66.4H317.504V154H302.354ZM302.354 60.4V43.9H317.504V60.4H302.354ZM323.447 154V66.4H336.947L338.597 72.7V154H323.447ZM359.597 154H344.447V86.05C344.447 82.55 344.197 80.2 343.697 79C343.297 77.8 342.497 77.2 341.297 77.2C340.897 77.2 340.497 77.25 340.097 77.35C339.697 77.45 339.197 77.6 338.597 77.8V72.7C339.697 70.5 341.197 68.8 343.097 67.6C344.997 66.3 346.947 65.65 348.947 65.65C352.147 65.65 354.697 66.9 356.597 69.4C358.597 71.9 359.597 76.45 359.597 83.05V154Z" fill="black"/>
</svg>
