<svg width="400" height="200" viewBox="0 0 400 200" fill="none" xmlns="http://www.w3.org/2000/svg">
<rect x="1" y="1" width="398" height="198" rx="9" fill="#C1BBA8"/>
<rect x="1" y="1" width="398" height="198" rx="9" stroke="#2F353D" stroke-width="2"/>
<rect x="1" y="1" width="398" height="198" rx="9" stroke="#2F353D" stroke-width="2"/>
<g clip-path="url(#clip0_2004_5)">
<path d="M201.327 34.9807C212.407 34.9807 220.675 37.4503 230.551 42.1881C240.427 46.9259 248.976 53.7981 255.503 62.2445C262.03 70.6907 266.349 80.4724 268.108 90.792C269.866 101.112 269.017 111.678 265.627 121.629C262.236 131.58 256.402 140.634 248.599 148.054C240.795 155.474 231.244 161.05 220.723 164.328C210.203 167.605 199.01 168.49 188.058 166.913C177.105 165.335 166.703 161.338 157.698 155.249L170.808 137.154C176.854 141.243 184.191 144.305 191.545 145.365C198.899 146.424 206.415 145.829 213.479 143.629C220.543 141.428 226.956 137.684 232.196 132.702C237.435 127.72 241.353 121.64 243.629 114.958C245.905 108.277 246.476 101.183 245.295 94.2533C244.114 87.3241 241.214 80.7562 236.832 75.085C232.449 69.4137 226.709 64.7995 220.078 61.6182C213.446 58.437 208.766 56.8749 201.327 56.8749V34.9807Z" fill="url(#paint0_linear_2004_5)"/>
<mask id="mask0_2004_5" style="mask-type:luminance" maskUnits="userSpaceOnUse" x="201" y="62" width="62" height="107">
<path d="M262.365 62.7266H201.326V168.88H262.365V62.7266Z" fill="white"/>
</mask>
<g mask="url(#mask0_2004_5)">
<path fill-rule="evenodd" clip-rule="evenodd" d="M258.165 66.553L258.172 66.5583C258.409 66.743 258.74 67.1128 259.108 67.627C259.472 68.135 259.859 68.7649 260.214 69.4523C260.927 70.8375 261.483 72.4109 261.483 73.6726V97.3561C261.483 109.426 261.415 117.484 260.442 123.052C259.957 125.831 259.249 127.967 258.227 129.662C257.207 131.353 255.865 132.621 254.086 133.647C250.462 135.738 242.854 139.047 236.13 141.841C232.772 143.236 229.642 144.499 227.352 145.415C226.206 145.872 225.271 146.243 224.622 146.498C224.476 146.556 224.345 146.607 224.229 146.653C224.087 146.709 223.967 146.756 223.873 146.793L223.677 146.869L223.627 146.889L223.623 146.89C221.987 147.381 220.867 147.957 220.159 148.744C219.438 149.547 219.183 150.526 219.183 151.728V151.741L219.185 151.755C219.507 155.611 219.176 158.635 216.987 161.228C214.672 163.971 209.748 166.407 204.374 167.599L201.651 168.122V146.085V123.016V100.907V82.0277C202.377 77.2956 205.772 75.0016 208.286 74.3048L208.288 74.3042L246.626 63.4124C251.978 62.1679 255.635 64.3601 258.159 66.5474L258.165 66.553ZM219.833 127.123C219.865 127.122 219.899 127.12 219.935 127.119C220.216 127.106 220.628 127.081 221.148 127.029C222.189 126.925 223.663 126.715 225.386 126.292L225.392 126.29L225.398 126.289C231.84 124.957 235.586 122.95 237.736 120.143C239.887 117.334 240.49 113.662 240.49 108.871C240.49 105.449 240.52 98.9286 240.551 93.2643C240.566 90.432 240.581 87.8134 240.593 85.9031L240.607 83.6303L240.609 83.2358L219.833 89.8255V89.8304V89.8398V89.8495V89.8592V89.8692V89.8793V89.8897V89.9002V89.9109V89.9218V89.9328V89.944V89.9554V89.9669V89.9787V89.9905V90.0027V90.0149V90.0273V90.04V90.0528V90.0656V90.0788V90.092V90.1056V90.1191V90.133V90.1468V90.161V90.1754V90.1898V90.2046V90.2193V90.2343V90.2495V90.2648V90.2803V90.296V90.3118V90.3278V90.344V90.3603V90.3768V90.3935V90.4104V90.4274V90.4445V90.4618V90.4794V90.497V90.5148V90.5328V90.5509V90.5693V90.5878V90.6064V90.6252V90.6442V90.6634V90.6826V90.7022V90.7218V90.7414V90.7615V90.7815V90.8018V90.8222V90.8428V90.8636V90.8845V90.9057V90.9269V90.9482V90.9698V90.9914V91.0133V91.0355V91.0575V91.0799V91.1024V91.125V91.1479V91.1708V91.194V91.2173V91.2408V91.2642V91.288V91.312V91.336V91.3602V91.3846V91.4091V91.4338V91.4586V91.4837V91.5088V91.5341V91.5595V91.5851V91.6108V91.6368V91.6628V91.689V91.7154V91.7419V91.7686V91.7954V91.8223V91.8494V91.8768V91.9041V91.9317V91.9594V91.9873V92.0153V92.0434V92.0717V92.1002V92.1287V92.1575V92.1865V92.2154V92.2446V92.2739V92.3035V92.3331V92.3628V92.3928V92.4228V92.453V92.4833V92.5139V92.5445V92.5752V92.6062V92.6372V92.6684V92.6998V92.7313V92.763V92.7947V92.8267V92.8588V92.8909V92.9233V92.9558V92.9884V93.0211V93.054V93.0872V93.1203V93.1535V93.1871V93.2207V93.2544V93.2883V93.3223V93.3564V93.3908V93.4251V93.4598V93.4944V93.5293V93.5643V93.5994V93.6347V93.6701V93.7055V93.7412V93.777V93.8129V93.849V93.8852V93.9214V93.9579V93.9945V94.0313V94.0682V94.1051V94.1422V94.1795V94.2169V94.2543V94.292V94.3298V94.3676V94.4057V94.4439V94.4822V94.5206V94.5593V94.5979V94.6367V94.6756V94.7148V94.7539V94.7933V94.8327V94.8723V94.912V94.9519V94.9918V95.0319V95.0721V95.1125V95.1529V95.1935V95.2343V95.2751V95.3161V95.3571V95.3984V95.4397V95.4812V95.5227V95.5645V95.6063V95.6483V95.6905V95.7327V95.7749V95.8173V95.8599V95.9026V95.9454V95.9884V96.0313V96.0746V96.1179V96.1612V96.2048V96.2484V96.2922V96.3361V96.3801V96.4242V96.4684V96.5129V96.5573V96.6019V96.6466V96.6914V96.7363V96.7815V96.8266V96.8718V96.9173V96.9628V97.0085V97.0543V97.1V97.1461V97.1921V97.2383V97.2846V97.3311V97.3776V97.4242V97.4711V97.5179V97.5649V97.612V97.6592V97.7066V97.754V97.8016V97.8492V97.897V97.9449V97.9928V98.041V98.0891V98.1374V98.1859V98.2344V98.2831V98.3318V98.3807V98.4296V98.4787V98.5278V98.5772V98.6265V98.676V98.7257V98.7754V98.8252V98.8751V98.9251V98.9753V99.0255V99.0758V99.1263V99.1768V99.2275V99.2782V99.329V99.38V99.4311V99.4823V99.5335V99.5848V99.6363V99.6878V99.7396V99.7913V99.8432V99.8951V99.9472V99.9994V100.052V100.104V100.156V100.209V100.262V100.314V100.367V100.42V100.473V100.526V100.58V100.633V100.686V100.74V100.794V100.847V100.901V100.955V101.009V101.063V101.117V101.172V101.226V101.281V101.335V101.39V101.445V101.499V101.554V101.609V101.664V101.72V101.775V101.83V101.886V101.941V101.997V102.053V102.109V102.165V102.221V102.277V102.333V102.389V102.446V102.502V102.559V102.615V102.672V102.729V102.786V102.843V102.9V102.957V103.014V103.072V103.129V103.187V103.244V103.302V103.36V103.417V103.475V103.533V103.591V103.65V103.708V103.766V103.825V103.883V103.942V104V104.059V104.118V104.177V104.236V104.295V104.354V104.413V104.473V104.532V104.591V104.651V104.711V104.77V104.83V104.89V104.95V105.01V105.07V105.13V105.19V105.251V105.311V105.372V105.432V105.493V105.553V105.614V105.675V105.736V105.797V105.858V105.919V105.98V106.042V106.103V106.165V106.226V106.288V106.349V106.411V106.473V106.535V106.597V106.659V106.721V106.783V106.845V106.907V106.97V107.032V107.094V107.157V107.22V107.282V107.345V107.408V107.471V107.534V107.597V107.66V107.723V107.786V107.85V107.913V107.976V108.04V108.103V108.167V108.231V108.294V108.358V108.422V108.486V108.55V108.614V108.678V108.742V108.807V108.871L219.833 127.123Z" fill="#010101"/>
</g>
<path d="M197.324 116.789V116.809L197.326 116.83L197.327 116.832L197.328 116.844C197.328 116.849 197.329 116.854 197.329 116.86C197.33 116.87 197.331 116.884 197.332 116.899C197.335 116.948 197.34 117.024 197.342 117.122C197.348 117.316 197.348 117.602 197.325 117.956C197.279 118.664 197.139 119.64 196.769 120.708C196.032 122.83 194.375 125.333 190.656 126.826L190.644 126.83L190.564 126.855L190.251 126.951C189.975 127.036 189.571 127.16 189.052 127.318C188.015 127.634 186.524 128.085 184.707 128.627C181.072 129.709 176.133 131.153 170.919 132.597C165.705 134.041 160.217 135.484 155.483 136.565C150.734 137.65 146.785 138.361 144.623 138.361C140.332 138.361 136.967 136.308 134.666 133.769C132.351 131.214 131.16 128.22 131.16 126.42L131.158 107.785L131.158 96.6803L131.157 93.0984L131.157 92.1022L131.157 91.8405L131.157 91.7736V91.7566L131.157 91.7524C131.157 91.7524 131.157 91.7509 131 91.7509L131.157 91.7524L131.158 61.4118L131.159 61.4002C131.161 61.3827 131.163 61.3564 131.166 61.3225C131.172 61.2544 131.181 61.1549 131.194 61.0308C131.22 60.7825 131.261 60.4367 131.32 60.0472C131.438 59.2594 131.625 58.3252 131.899 57.6531C132.934 55.111 135.196 53.3627 137.093 52.4629L137.095 52.4621C140.915 50.626 144.738 49.3713 147.61 48.5754C149.045 48.1776 150.24 47.8949 151.075 47.712C151.427 47.6347 151.716 47.5754 151.931 47.5324V61.7048V79.4244V109.471V109.474C151.931 109.85 151.931 110.59 152.299 111.439C152.672 112.296 153.405 113.234 154.817 114.042C155.588 114.483 156.689 114.599 157.84 114.562C159.006 114.525 160.292 114.328 161.481 114.085C162.672 113.842 163.776 113.551 164.582 113.32C164.985 113.205 165.314 113.105 165.543 113.033C165.585 113.019 165.625 113.007 165.66 112.996C165.72 112.977 165.769 112.961 165.808 112.949L165.877 112.926L165.895 112.92L176.274 109.88L176.55 109.799V109.511V47.0815L176.552 47.0611C176.554 47.0381 176.557 47.0038 176.561 46.9592C176.569 46.8698 176.581 46.7395 176.599 46.5772C176.634 46.2525 176.692 45.8012 176.777 45.2955C176.949 44.2727 177.231 43.0711 177.663 42.2365C178.979 39.6918 180.981 38.1594 183.993 37.0278L183.996 37.027L197.324 32.2073V79.4244V98.6846V116.789Z" fill="#010101"/>
</g>
<defs>
<linearGradient id="paint0_linear_2004_5" x1="288.24" y1="130.519" x2="154.221" y2="132.51" gradientUnits="userSpaceOnUse">
<stop stop-color="#C1BBA8"/>
<stop offset="1" stop-color="#0A0A0A" stop-opacity="0"/>
</linearGradient>
<clipPath id="clip0_2004_5">
<rect width="138" height="138" fill="white" transform="translate(131 31)"/>
</clipPath>
</defs>
</svg>
